<svg width="118" height="38" viewBox="0 0 118 38" fill="none" xmlns="http://www.w3.org/2000/svg">
<rect width="118" height="38" rx="6" fill="#EBE5F9"/>
<path d="M19 9.375C16.995 9.37727 15.0728 10.1748 13.655 11.5925C12.2373 13.0103 11.4398 14.9325 11.4375 16.9375C11.4375 23.4086 18.3125 28.2984 18.6047 28.5047C18.7218 28.5827 18.8593 28.6243 19 28.6243C19.1407 28.6243 19.2782 28.5827 19.3953 28.5047C19.6875 28.2984 26.5625 23.4086 26.5625 16.9375C26.5602 14.9325 25.7627 13.0103 24.345 11.5925C22.9272 10.1748 21.005 9.37727 19 9.375ZM19 14.1875C19.5439 14.1875 20.0756 14.3488 20.5278 14.651C20.9801 14.9531 21.3325 15.3826 21.5407 15.8851C21.7488 16.3876 21.8033 16.9406 21.6972 17.474C21.5911 18.0074 21.3291 18.4974 20.9445 18.882C20.5599 19.2666 20.0699 19.5286 19.5365 19.6347C19.0031 19.7408 18.4501 19.6863 17.9476 19.4782C17.4451 19.27 17.0156 18.9176 16.7135 18.4653C16.4113 18.0131 16.25 17.4814 16.25 16.9375C16.25 16.2082 16.5397 15.5087 17.0555 14.993C17.5712 14.4772 18.2707 14.1875 19 14.1875Z" fill="#8047F8"/>
<path d="M40.46 21.4844C40.46 21.252 40.4235 21.0469 40.3506 20.8691C40.2822 20.6868 40.1592 20.5228 39.9814 20.377C39.8083 20.2311 39.5667 20.0921 39.2568 19.96C38.9515 19.8278 38.5641 19.6934 38.0947 19.5566C37.6025 19.4108 37.1582 19.249 36.7617 19.0713C36.3652 18.889 36.0257 18.6816 35.7432 18.4492C35.4606 18.2168 35.2441 17.9502 35.0938 17.6494C34.9434 17.3486 34.8682 17.0046 34.8682 16.6172C34.8682 16.2298 34.9479 15.8721 35.1074 15.5439C35.2669 15.2158 35.4948 14.931 35.791 14.6895C36.0918 14.4434 36.4495 14.252 36.8643 14.1152C37.279 13.9785 37.7415 13.9102 38.252 13.9102C38.9993 13.9102 39.6328 14.0537 40.1523 14.3408C40.6764 14.6234 41.0752 14.9948 41.3486 15.4551C41.6221 15.9108 41.7588 16.3984 41.7588 16.918H40.4463C40.4463 16.5443 40.3665 16.2139 40.207 15.9268C40.0475 15.6351 39.806 15.4072 39.4824 15.2432C39.1589 15.0745 38.7487 14.9902 38.252 14.9902C37.7826 14.9902 37.3952 15.0609 37.0898 15.2021C36.7845 15.3434 36.5566 15.5348 36.4062 15.7764C36.2604 16.0179 36.1875 16.2936 36.1875 16.6035C36.1875 16.8132 36.2308 17.0046 36.3174 17.1777C36.4085 17.3464 36.5475 17.5036 36.7344 17.6494C36.9258 17.7952 37.1673 17.9297 37.459 18.0527C37.7552 18.1758 38.1084 18.2943 38.5186 18.4082C39.0837 18.5677 39.5713 18.7454 39.9814 18.9414C40.3916 19.1374 40.7288 19.3584 40.9932 19.6045C41.262 19.846 41.4603 20.1217 41.5879 20.4316C41.7201 20.737 41.7861 21.0833 41.7861 21.4707C41.7861 21.8763 41.7041 22.2432 41.54 22.5713C41.376 22.8994 41.1413 23.1797 40.8359 23.4121C40.5306 23.6445 40.1637 23.8245 39.7354 23.9521C39.3115 24.0752 38.8376 24.1367 38.3135 24.1367C37.8532 24.1367 37.3997 24.0729 36.9531 23.9453C36.5111 23.8177 36.1077 23.6263 35.7432 23.3711C35.3831 23.1159 35.0938 22.8014 34.875 22.4277C34.6608 22.0495 34.5537 21.612 34.5537 21.1152H35.8662C35.8662 21.457 35.9323 21.751 36.0645 21.9971C36.1966 22.2386 36.3766 22.4391 36.6045 22.5986C36.8369 22.7581 37.099 22.8766 37.3906 22.9541C37.6868 23.027 37.9945 23.0635 38.3135 23.0635C38.7738 23.0635 39.1634 22.9997 39.4824 22.8721C39.8014 22.7445 40.043 22.5622 40.207 22.3252C40.3757 22.0882 40.46 21.8079 40.46 21.4844ZM47.6377 22.7354V18.9277C47.6377 18.6361 47.5785 18.3831 47.46 18.1689C47.346 17.9502 47.1729 17.7816 46.9404 17.6631C46.708 17.5446 46.4209 17.4854 46.0791 17.4854C45.7601 17.4854 45.4798 17.54 45.2383 17.6494C45.0013 17.7588 44.8145 17.9023 44.6777 18.0801C44.5456 18.2578 44.4795 18.4492 44.4795 18.6543H43.2148C43.2148 18.39 43.2832 18.1279 43.4199 17.8682C43.5566 17.6084 43.7526 17.3737 44.0078 17.1641C44.2676 16.9499 44.5775 16.7812 44.9375 16.6582C45.3021 16.5306 45.7077 16.4668 46.1543 16.4668C46.6921 16.4668 47.166 16.5579 47.5762 16.7402C47.9909 16.9225 48.3145 17.1982 48.5469 17.5674C48.7839 17.932 48.9023 18.39 48.9023 18.9414V22.3867C48.9023 22.6328 48.9229 22.8949 48.9639 23.1729C49.0094 23.4508 49.0755 23.6901 49.1621 23.8906V24H47.8428C47.779 23.8542 47.7288 23.6605 47.6924 23.4189C47.6559 23.1729 47.6377 22.945 47.6377 22.7354ZM47.8564 19.5156L47.8701 20.4043H46.5918C46.2318 20.4043 45.9105 20.4339 45.6279 20.4932C45.3454 20.5479 45.1084 20.6322 44.917 20.7461C44.7256 20.86 44.5798 21.0036 44.4795 21.1768C44.3792 21.3454 44.3291 21.5436 44.3291 21.7715C44.3291 22.0039 44.3815 22.2158 44.4863 22.4072C44.5911 22.5986 44.7484 22.7513 44.958 22.8652C45.1722 22.9746 45.4342 23.0293 45.7441 23.0293C46.1315 23.0293 46.4733 22.9473 46.7695 22.7832C47.0658 22.6191 47.3005 22.4186 47.4736 22.1816C47.6514 21.9447 47.7471 21.7145 47.7607 21.4912L48.3008 22.0996C48.2689 22.291 48.1823 22.5029 48.041 22.7354C47.8997 22.9678 47.7106 23.1911 47.4736 23.4053C47.2412 23.6149 46.9632 23.7904 46.6396 23.9316C46.3206 24.0684 45.9606 24.1367 45.5596 24.1367C45.0583 24.1367 44.6185 24.0387 44.2402 23.8428C43.8665 23.6468 43.5749 23.3848 43.3652 23.0566C43.1602 22.724 43.0576 22.3525 43.0576 21.9424C43.0576 21.5459 43.1351 21.1973 43.29 20.8965C43.445 20.5911 43.6683 20.3382 43.96 20.1377C44.2516 19.9326 44.6025 19.7777 45.0127 19.6729C45.4229 19.568 45.8809 19.5156 46.3867 19.5156H47.8564ZM52.2656 13.5V24H50.9941V13.5H52.2656ZM56.5449 22.8584L58.5684 16.6035H59.8604L57.2012 24H56.3535L56.5449 22.8584ZM54.8564 16.6035L56.9414 22.8926L57.085 24H56.2373L53.5576 16.6035H54.8564ZM65.3291 22.7354V18.9277C65.3291 18.6361 65.2699 18.3831 65.1514 18.1689C65.0374 17.9502 64.8643 17.7816 64.6318 17.6631C64.3994 17.5446 64.1123 17.4854 63.7705 17.4854C63.4515 17.4854 63.1712 17.54 62.9297 17.6494C62.6927 17.7588 62.5059 17.9023 62.3691 18.0801C62.237 18.2578 62.1709 18.4492 62.1709 18.6543H60.9062C60.9062 18.39 60.9746 18.1279 61.1113 17.8682C61.248 17.6084 61.444 17.3737 61.6992 17.1641C61.959 16.9499 62.2689 16.7812 62.6289 16.6582C62.9935 16.5306 63.3991 16.4668 63.8457 16.4668C64.3835 16.4668 64.8574 16.5579 65.2676 16.7402C65.6823 16.9225 66.0059 17.1982 66.2383 17.5674C66.4753 17.932 66.5938 18.39 66.5938 18.9414V22.3867C66.5938 22.6328 66.6143 22.8949 66.6553 23.1729C66.7008 23.4508 66.7669 23.6901 66.8535 23.8906V24H65.5342C65.4704 23.8542 65.4202 23.6605 65.3838 23.4189C65.3473 23.1729 65.3291 22.945 65.3291 22.7354ZM65.5479 19.5156L65.5615 20.4043H64.2832C63.9232 20.4043 63.6019 20.4339 63.3193 20.4932C63.0368 20.5479 62.7998 20.6322 62.6084 20.7461C62.417 20.86 62.2712 21.0036 62.1709 21.1768C62.0706 21.3454 62.0205 21.5436 62.0205 21.7715C62.0205 22.0039 62.0729 22.2158 62.1777 22.4072C62.2826 22.5986 62.4398 22.7513 62.6494 22.8652C62.8636 22.9746 63.1257 23.0293 63.4355 23.0293C63.8229 23.0293 64.1647 22.9473 64.4609 22.7832C64.7572 22.6191 64.9919 22.4186 65.165 22.1816C65.3428 21.9447 65.4385 21.7145 65.4521 21.4912L65.9922 22.0996C65.9603 22.291 65.8737 22.5029 65.7324 22.7354C65.5911 22.9678 65.402 23.1911 65.165 23.4053C64.9326 23.6149 64.6546 23.7904 64.3311 23.9316C64.012 24.0684 63.652 24.1367 63.251 24.1367C62.7497 24.1367 62.3099 24.0387 61.9316 23.8428C61.5579 23.6468 61.2663 23.3848 61.0566 23.0566C60.8516 22.724 60.749 22.3525 60.749 21.9424C60.749 21.5459 60.8265 21.1973 60.9814 20.8965C61.1364 20.5911 61.3597 20.3382 61.6514 20.1377C61.943 19.9326 62.2939 19.7777 62.7041 19.6729C63.1143 19.568 63.5723 19.5156 64.0781 19.5156H65.5479ZM73.2451 22.5645V13.5H74.5166V24H73.3545L73.2451 22.5645ZM68.2686 20.3838V20.2402C68.2686 19.6751 68.3369 19.1624 68.4736 18.7021C68.6149 18.2373 68.8132 17.8385 69.0684 17.5059C69.3281 17.1732 69.6357 16.918 69.9912 16.7402C70.3512 16.5579 70.7523 16.4668 71.1943 16.4668C71.6592 16.4668 72.0648 16.5488 72.4111 16.7129C72.762 16.8724 73.0583 17.1071 73.2998 17.417C73.5459 17.7223 73.7396 18.0915 73.8809 18.5244C74.0221 18.9574 74.1201 19.4473 74.1748 19.9941V20.623C74.1247 21.1654 74.0267 21.653 73.8809 22.0859C73.7396 22.5189 73.5459 22.888 73.2998 23.1934C73.0583 23.4987 72.762 23.7334 72.4111 23.8975C72.0602 24.057 71.6501 24.1367 71.1807 24.1367C70.7477 24.1367 70.3512 24.0433 69.9912 23.8564C69.6357 23.6696 69.3281 23.4076 69.0684 23.0703C68.8132 22.7331 68.6149 22.3366 68.4736 21.8809C68.3369 21.4206 68.2686 20.9215 68.2686 20.3838ZM69.54 20.2402V20.3838C69.54 20.7529 69.5765 21.0993 69.6494 21.4229C69.7269 21.7464 69.8454 22.0312 70.0049 22.2773C70.1644 22.5234 70.3672 22.7171 70.6133 22.8584C70.8594 22.9951 71.1533 23.0635 71.4951 23.0635C71.9144 23.0635 72.2585 22.9746 72.5273 22.7969C72.8008 22.6191 73.0195 22.3844 73.1836 22.0928C73.3477 21.8011 73.4753 21.4844 73.5664 21.1426V19.4951C73.5117 19.2445 73.432 19.0029 73.3271 18.7705C73.2269 18.5335 73.0947 18.3239 72.9307 18.1416C72.7712 17.9548 72.5729 17.8066 72.3359 17.6973C72.1035 17.5879 71.8278 17.5332 71.5088 17.5332C71.1624 17.5332 70.8639 17.6061 70.6133 17.752C70.3672 17.8932 70.1644 18.0892 70.0049 18.3398C69.8454 18.5859 69.7269 18.873 69.6494 19.2012C69.5765 19.5247 69.54 19.8711 69.54 20.2402ZM76.1504 20.3838V20.2266C76.1504 19.6934 76.2279 19.1989 76.3828 18.7432C76.5378 18.2829 76.7611 17.8841 77.0527 17.5469C77.3444 17.2051 77.6976 16.9408 78.1123 16.7539C78.527 16.5625 78.9919 16.4668 79.5068 16.4668C80.0264 16.4668 80.4935 16.5625 80.9082 16.7539C81.3275 16.9408 81.6829 17.2051 81.9746 17.5469C82.2708 17.8841 82.4964 18.2829 82.6514 18.7432C82.8063 19.1989 82.8838 19.6934 82.8838 20.2266V20.3838C82.8838 20.917 82.8063 21.4115 82.6514 21.8672C82.4964 22.3229 82.2708 22.7217 81.9746 23.0635C81.6829 23.4007 81.3298 23.665 80.915 23.8564C80.5049 24.0433 80.04 24.1367 79.5205 24.1367C79.001 24.1367 78.5339 24.0433 78.1191 23.8564C77.7044 23.665 77.349 23.4007 77.0527 23.0635C76.7611 22.7217 76.5378 22.3229 76.3828 21.8672C76.2279 21.4115 76.1504 20.917 76.1504 20.3838ZM77.415 20.2266V20.3838C77.415 20.7529 77.4583 21.1016 77.5449 21.4297C77.6315 21.7533 77.7614 22.0404 77.9346 22.291C78.1123 22.5417 78.3333 22.7399 78.5977 22.8857C78.862 23.027 79.1696 23.0977 79.5205 23.0977C79.8669 23.0977 80.1699 23.027 80.4297 22.8857C80.694 22.7399 80.9128 22.5417 81.0859 22.291C81.2591 22.0404 81.389 21.7533 81.4756 21.4297C81.5667 21.1016 81.6123 20.7529 81.6123 20.3838V20.2266C81.6123 19.862 81.5667 19.5179 81.4756 19.1943C81.389 18.8662 81.2568 18.5768 81.0791 18.3262C80.9059 18.071 80.6872 17.8704 80.4229 17.7246C80.1631 17.5788 79.8577 17.5059 79.5068 17.5059C79.1605 17.5059 78.8551 17.5788 78.5908 17.7246C78.3311 17.8704 78.1123 18.071 77.9346 18.3262C77.7614 18.5768 77.6315 18.8662 77.5449 19.1943C77.4583 19.5179 77.415 19.862 77.415 20.2266ZM85.7344 17.7656V24H84.4697V16.6035H85.7002L85.7344 17.7656ZM88.0449 16.5625L88.0381 17.7383C87.9333 17.7155 87.833 17.7018 87.7373 17.6973C87.6462 17.6882 87.5413 17.6836 87.4229 17.6836C87.1312 17.6836 86.8737 17.7292 86.6504 17.8203C86.4271 17.9115 86.238 18.0391 86.083 18.2031C85.9281 18.3672 85.805 18.5632 85.7139 18.791C85.6273 19.0143 85.5703 19.2604 85.543 19.5293L85.1875 19.7344C85.1875 19.2878 85.2308 18.8685 85.3174 18.4766C85.4085 18.0846 85.5475 17.7383 85.7344 17.4375C85.9212 17.1322 86.1582 16.8952 86.4453 16.7266C86.737 16.5534 87.0833 16.4668 87.4844 16.4668C87.5755 16.4668 87.6803 16.4782 87.7988 16.501C87.9173 16.5192 87.9993 16.5397 88.0449 16.5625ZM91.8457 19.249V20.2881H88.5098V19.249H91.8457ZM96.8223 19.3447H94.2998L94.2861 18.2852H96.5762C96.9544 18.2852 97.2848 18.2214 97.5674 18.0938C97.8499 17.9661 98.0687 17.7839 98.2236 17.5469C98.3831 17.3053 98.4629 17.0182 98.4629 16.6855C98.4629 16.321 98.3923 16.0247 98.251 15.7969C98.1143 15.5645 97.9023 15.3958 97.6152 15.291C97.3327 15.1816 96.9727 15.127 96.5352 15.127H94.5938V24H93.2744V14.0469H96.5352C97.0456 14.0469 97.5013 14.0993 97.9023 14.2041C98.3034 14.3044 98.6429 14.4639 98.9209 14.6826C99.2035 14.8968 99.4176 15.1702 99.5635 15.5029C99.7093 15.8356 99.7822 16.2344 99.7822 16.6992C99.7822 17.1094 99.6774 17.4808 99.4678 17.8135C99.2581 18.1416 98.9665 18.4105 98.5928 18.6201C98.2236 18.8298 97.7907 18.9642 97.2939 19.0234L96.8223 19.3447ZM96.7607 24H93.7803L94.5254 22.9268H96.7607C97.18 22.9268 97.5355 22.8538 97.8271 22.708C98.1234 22.5622 98.349 22.3571 98.5039 22.0928C98.6589 21.8239 98.7363 21.5072 98.7363 21.1426C98.7363 20.7734 98.6702 20.4544 98.5381 20.1855C98.4059 19.9167 98.1986 19.7093 97.916 19.5635C97.6335 19.4176 97.2689 19.3447 96.8223 19.3447H94.9424L94.9561 18.2852H97.5264L97.8066 18.668C98.2852 18.709 98.6908 18.8457 99.0234 19.0781C99.3561 19.306 99.609 19.5977 99.7822 19.9531C99.96 20.3086 100.049 20.7005 100.049 21.1289C100.049 21.7487 99.9121 22.2728 99.6387 22.7012C99.3698 23.125 98.9893 23.4486 98.4971 23.6719C98.0049 23.8906 97.4261 24 96.7607 24ZM105.682 14.9287L102.387 24H101.04L104.834 14.0469H105.702L105.682 14.9287ZM108.443 24L105.142 14.9287L105.121 14.0469H105.989L109.797 24H108.443ZM108.272 20.3154V21.3955H102.681V20.3154H108.272Z" fill="#4B2995"/>
</svg>
